<?xml version="1.0" encoding="UTF-8"?>
<svg width="512" height="512" viewBox="0 0 512 512" fill="none" xmlns="http://www.w3.org/2000/svg">
  <rect width="512" height="512" rx="256" fill="#FFD700"/>
  <path d="M128 256C128 185.307 185.307 128 256 128C326.693 128 384 185.307 384 256C384 326.693 326.693 384 256 384C185.307 384 128 326.693 128 256Z" fill="#333"/>
  <path d="M256 160C203.065 160 160 203.065 160 256C160 308.935 203.065 352 256 352C308.935 352 352 308.935 352 256C352 203.065 308.935 160 256 160ZM256 320C216.288 320 184 287.712 184 248C184 208.288 216.288 176 256 176C295.712 176 328 208.288 328 248C328 287.712 295.712 320 256 320Z" fill="#FFD700"/>
  <path d="M256 192C229.49 192 208 213.49 208 240C208 266.51 229.49 288 256 288C282.51 288 304 266.51 304 240C304 213.49 282.51 192 256 192ZM256 272C238.327 272 224 257.673 224 240C224 222.327 238.327 208 256 208C273.673 208 288 222.327 288 240C288 257.673 273.673 272 256 272Z" fill="#333"/>
</svg> 